name rise43.5482peak65.4966fall89.1036.mot
datacolumns 19
datarows 15
range 21.63324600000000 21.65658200000000
endheader
time	ground_force1_vx	ground_force1_vy	ground_force1_vz	ground_force1_px	ground_force1_py	ground_force1_pz	ground_force2_vx	ground_force2_vy	ground_force2_vz	ground_force2_px	ground_force2_py	ground_force2_pz	ground_torque1_x	ground_torque1_y	ground_torque1_z	ground_torque2_x	ground_torque2_y	ground_torque2_z	
21.63324600000000	63.06026400000000	791.76310100000001	62.35994900000000	0.31280600000000	0.00000000000000	0.12581600000000	0.00000000000000	0.00000000000000	0.00000000000000	0.00000000000000	0.00000000000000	0.00000000000000	0.00000000000000	22.20038900000000	0.00000000000000	0.00000000000000	0.00000000000000	0.00000000000000	
21.63493400000000	62.68273400000000	795.10566500000004	62.52813400000000	0.31223000000000	0.00000000000000	0.12581700000000	0.00000000000000	0.00000000000000	0.00000000000000	0.00000000000000	0.00000000000000	0.00000000000000	0.00000000000000	22.28399600000000	0.00000000000000	0.00000000000000	0.00000000000000	0.00000000000000	
21.63658000000000	62.29893300000000	798.29585899999995	62.68920000000000	0.31167100000000	0.00000000000000	0.12581800000000	0.00000000000000	0.00000000000000	0.00000000000000	0.00000000000000	0.00000000000000	0.00000000000000	0.00000000000000	22.36676400000000	0.00000000000000	0.00000000000000	0.00000000000000	0.00000000000000	
21.63824700000000	61.90882800000000	801.32999600000005	62.84285000000000	0.31112600000000	0.00000000000000	0.12582000000000	0.00000000000000	0.00000000000000	0.00000000000000	0.00000000000000	0.00000000000000	0.00000000000000	0.00000000000000	22.44844000000000	0.00000000000000	0.00000000000000	0.00000000000000	0.00000000000000	
21.63993300000000	61.51234400000000	804.20464000000004	62.98875000000000	0.31059300000000	0.00000000000000	0.12582100000000	0.00000000000000	0.00000000000000	0.00000000000000	0.00000000000000	0.00000000000000	0.00000000000000	0.00000000000000	22.52875000000000	0.00000000000000	0.00000000000000	0.00000000000000	0.00000000000000	
21.64157900000000	61.10937100000000	806.91661699999997	63.12653400000000	0.31006900000000	0.00000000000000	0.12582400000000	0.00000000000000	0.00000000000000	0.00000000000000	0.00000000000000	0.00000000000000	0.00000000000000	0.00000000000000	22.60739900000000	0.00000000000000	0.00000000000000	0.00000000000000	0.00000000000000	
21.64324400000000	60.69976700000000	809.46303699999999	63.25581100000000	0.30955200000000	0.00000000000000	0.12582700000000	0.00000000000000	0.00000000000000	0.00000000000000	0.00000000000000	0.00000000000000	0.00000000000000	0.00000000000000	22.68407200000000	0.00000000000000	0.00000000000000	0.00000000000000	0.00000000000000	
21.64490800000000	60.28336300000000	811.84130000000005	63.37616900000000	0.30903900000000	0.00000000000000	0.12583100000000	0.00000000000000	0.00000000000000	0.00000000000000	0.00000000000000	0.00000000000000	0.00000000000000	0.00000000000000	22.75844000000000	0.00000000000000	0.00000000000000	0.00000000000000	0.00000000000000	
21.64658200000000	59.85996800000000	814.04911700000002	63.48717900000000	0.30852800000000	0.00000000000000	0.12583500000000	0.00000000000000	0.00000000000000	0.00000000000000	0.00000000000000	0.00000000000000	0.00000000000000	0.00000000000000	22.83016100000000	0.00000000000000	0.00000000000000	0.00000000000000	0.00000000000000	
21.64824500000000	59.42937500000000	816.08451200000002	63.58839900000000	0.30801600000000	0.00000000000000	0.12583900000000	0.00000000000000	0.00000000000000	0.00000000000000	0.00000000000000	0.00000000000000	0.00000000000000	0.00000000000000	22.89888500000000	0.00000000000000	0.00000000000000	0.00000000000000	0.00000000000000	
21.64992000000000	58.99136400000000	817.94583799999998	63.67938500000000	0.30750000000000	0.00000000000000	0.12584500000000	0.00000000000000	0.00000000000000	0.00000000000000	0.00000000000000	0.00000000000000	0.00000000000000	0.00000000000000	22.96425500000000	0.00000000000000	0.00000000000000	0.00000000000000	0.00000000000000	
21.65158000000000	58.54570800000000	819.63178300000004	63.75968900000000	0.30697800000000	0.00000000000000	0.12585100000000	0.00000000000000	0.00000000000000	0.00000000000000	0.00000000000000	0.00000000000000	0.00000000000000	0.00000000000000	23.02591000000000	0.00000000000000	0.00000000000000	0.00000000000000	0.00000000000000	
21.65324700000000	58.09218000000000	821.14137700000003	63.82886700000000	0.30644700000000	0.00000000000000	0.12585700000000	0.00000000000000	0.00000000000000	0.00000000000000	0.00000000000000	0.00000000000000	0.00000000000000	0.00000000000000	23.08349100000000	0.00000000000000	0.00000000000000	0.00000000000000	0.00000000000000	
21.65492700000000	57.63055400000000	822.47399399999995	63.88648400000000	0.30590500000000	0.00000000000000	0.12586400000000	0.00000000000000	0.00000000000000	0.00000000000000	0.00000000000000	0.00000000000000	0.00000000000000	0.00000000000000	23.13664100000000	0.00000000000000	0.00000000000000	0.00000000000000	0.00000000000000	
21.65658200000000	57.16061000000000	823.62936200000001	63.93211700000000	0.30535000000000	0.00000000000000	0.12587200000000	0.00000000000000	0.00000000000000	0.00000000000000	0.00000000000000	0.00000000000000	0.00000000000000	0.00000000000000	23.18500600000000	0.00000000000000	0.00000000000000	0.00000000000000	0.00000000000000	
